<?xml version="1.0" encoding="UTF-8"?>
<svg id="Layer_2" data-name="Layer 2" xmlns="http://www.w3.org/2000/svg" viewBox="0 0 172.41 172.41">
  <defs>
    <style>
      .cls-1 {
        fill: #ea571f;
      }

      .cls-2 {
        fill: #fff;
      }

      .cls-3 {
        fill: #14384e;
      }

      .cls-4 {
        fill: #1f3038;
      }

      .cls-5 {
        fill: #1d1d1b;
        stroke: #1d1d1b;
        stroke-linecap: round;
        stroke-miterlimit: 10;
        stroke-width: 6px;
      }
    </style>
  </defs>
  <g id="_1" data-name="1">
    <g>
      <rect class="cls-5" x="3" y="3" width="166.41" height="166.41" rx="12" ry="12"/>
      <path class="cls-2" d="m42.99,67.22c11.26-16.06,38.98-49.95,60.45-33.24,13.79,11.33,17.51,38.17,19.46,55.09.46,6.6-8.96,7.65-9.94,1.08-.6-15.12-1.95-40.95-13.18-51.9-16.77-15.39-46.49,16.28-56.8,28.97h0Z"/>
      <path class="cls-2" d="m127.84,54.89c10.45,16.6,30.95,55.29,7.23,68.61-15.81,8.32-41.95,1.37-58.33-3.39-6.27-2.14-3.59-11.22,2.86-9.58,14.13,5.29,46.93,17.42,58.46,3.84,11.14-13.97-2.79-45.46-10.22-59.48h0Z"/>
      <path class="cls-2" d="m87.87,146.16c-17.61-2.12-51.82-8.71-57.53-28.26-5.65-20.8,24.09-42.13,38.95-52.48,5.6-3.53,10.98,4.27,5.65,8.25-13.04,7.69-35.15,21.1-39.48,36.18-5.62,22.06,36.35,33.25,52.41,36.32h0Z"/>
      <circle class="cls-1" cx="70.86" cy="107.96" r="16.53"/>
      <circle class="cls-4" cx="115.26" cy="94.91" r="16.53"/>
      <circle class="cls-3" cx="80.8" cy="68.21" r="16.53"/>
    </g>
  </g>
</svg>