<?xml version="1.0" encoding="UTF-8"?><svg id="Ebene_2" xmlns="http://www.w3.org/2000/svg" xmlns:xlink="http://www.w3.org/1999/xlink" viewBox="0 0 1126.41 2436.5"><defs><style>.cls-1{fill:#fff;}.cls-2{opacity:.48;}.cls-2,.cls-3{fill:#a3a3a3;}.cls-4{fill:url(#Unbenannter_Verlauf);opacity:.66;}.cls-3{opacity:.28;}.cls-5{fill:url(#Unbenannter_Verlauf_31);}</style><linearGradient id="Unbenannter_Verlauf_31" x1="-377.44" y1="1919.84" x2="757.61" y2="1072.91" gradientTransform="matrix(1, 0, 0, 1, 0, 0)" gradientUnits="userSpaceOnUse"><stop offset=".18" stop-color="#fff"/><stop offset="1" stop-color="#e0e0e0"/></linearGradient><linearGradient id="Unbenannter_Verlauf" x1="659.07" y1="-96.15" x2="642.91" y2="845" gradientTransform="matrix(1, 0, 0, 1, 0, 0)" gradientUnits="userSpaceOnUse"><stop offset="0" stop-color="#fff"/><stop offset="1" stop-color="#000"/></linearGradient></defs><g id="Ebene_1-2"><polygon class="cls-5" points=".88 1 1123.43 3.94 1123.43 2436.5 1.34 2436.5 .88 1"/><path class="cls-2" d="M272.78,2436.5l409.54-409.54c30.32-30.32,77.33-36.25,114.23-14.42l326.87,193.43v230.53H272.78Z"/><path class="cls-4" d="M185.11,1.54l500.71,500.71c37.25,37.25,97.7,37.06,134.72-.43l305.86-309.77V0L185.11,1.54Z"/><path class="cls-3" d="M1126.41,652.25L370.64,1408.02c-40.1,40.1-40.1,105.13,0,145.23l159.26,159.26c40.15,40.15,105.26,40.1,145.35-.12l451.16-452.64V652.25Z"/><path class="cls-3" d="M1123.23,749.28L327.56,1544.95c-36.17,36.17-36.17,94.83,0,131l73.55,73.55c36.17,36.17,94.83,36.17,131,0l588.3-588.3,2.82-411.93Z"/><path class="cls-1" d="M1.34,2061.75l766.18-766.18c57.01-57.01,57.01-149.45,0-206.47L0,321.59l1.34,1740.16Z"/></g></svg>