<?xml version="1.0" encoding="UTF-8"?><svg id="Ebene_2" xmlns="http://www.w3.org/2000/svg" xmlns:xlink="http://www.w3.org/1999/xlink" viewBox="0 0 1128.24 2436"><defs><style>.cls-1{fill:#fff;}.cls-2{opacity:.48;}.cls-2,.cls-3,.cls-4{fill:#a3a3a3;}.cls-3{opacity:.66;}.cls-4{opacity:.28;}.cls-5{fill:url(#Unbenannter_Verlauf_31);}</style><linearGradient id="Unbenannter_Verlauf_31" x1="-377.84" y1="1918.84" x2="757.2" y2="1071.91" gradientTransform="matrix(1, 0, 0, 1, 0, 0)" gradientUnits="userSpaceOnUse"><stop offset=".18" stop-color="#fff"/><stop offset="1" stop-color="#e0e0e0"/></linearGradient></defs><g id="Ebene_1-2"><polygon class="cls-5" points=".47 0 1123.02 2.94 1123.02 2435.5 .93 2435.5 .47 0"/><path class="cls-2" d="M202.07,2436l501.77-501.77c75.66-75.66,192.95-90.46,285.03-35.97l135.13,110.74-1,426-920.93,1Z"/><path class="cls-3" d="M184.64,.48l392.2,392.2c97.07,97.07,254.6,96.57,351.06-1.11l198.04-200.57-2.92-188.06L184.64,.48Z"/><path class="cls-4" d="M1123,436.25L183.26,1375.99c-49.87,49.87-49.87,130.72,0,180.58l198.02,198.02c49.92,49.92,130.89,49.86,180.73-.15l560.99-562.82V436.25Z"/><path class="cls-4" d="M1128.24,865.28L213.79,1779.73c-41.57,41.57-41.57,108.98,0,150.56l84.53,84.53c41.57,41.57,108.98,41.57,150.56,0l676.12-676.12,3.24-473.42Z"/><path class="cls-1" d="M1.72,2227.75l980.86-980.86c72.99-72.99,72.99-191.33,0-264.32L0,0,1.72,2227.75Z"/></g></svg>