<?xml version="1.0" encoding="UTF-8"?><svg id="Ebene_2" xmlns="http://www.w3.org/2000/svg" xmlns:xlink="http://www.w3.org/1999/xlink" viewBox="0 0 1126.41 2436.5"><defs><style>.cls-1{fill:#fff;}.cls-2{fill:url(#Unbenannter_Verlauf_18);}.cls-3{fill:url(#Unbenannter_Verlauf_7);}.cls-4{fill:url(#Unbenannter_Verlauf_5);}.cls-5{fill:url(#Unbenannter_Verlauf_31);}.cls-6{fill:url(#Unbenannter_Verlauf_12);}</style><linearGradient id="Unbenannter_Verlauf_31" x1="-377.44" y1="1919.84" x2="757.61" y2="1072.91" gradientTransform="matrix(1, 0, 0, 1, 0, 0)" gradientUnits="userSpaceOnUse"><stop offset=".18" stop-color="#fff"/><stop offset="1" stop-color="#e0e0e0"/></linearGradient><linearGradient id="Unbenannter_Verlauf_7" x1="687.39" y1="2869.16" x2="708.45" y2="2018.78" gradientTransform="matrix(1, 0, 0, 1, 0, 0)" gradientUnits="userSpaceOnUse"><stop offset=".02" stop-color="#fff"/><stop offset=".4" stop-color="#fbfbfb"/><stop offset=".71" stop-color="#f1f1f1"/><stop offset=".99" stop-color="#e1e1e1"/><stop offset="1" stop-color="#e0e0e0"/></linearGradient><linearGradient id="Unbenannter_Verlauf_12" x1="661.06" y1="-96.04" x2="635.19" y2="844.9" gradientTransform="matrix(1, 0, 0, 1, 0, 0)" gradientUnits="userSpaceOnUse"><stop offset="0" stop-color="#fff"/><stop offset="1" stop-color="#a3a3a3"/></linearGradient><linearGradient id="Unbenannter_Verlauf_18" x1="912.66" y1="1525.92" x2="691.58" y2="1328.73" gradientTransform="matrix(1, 0, 0, 1, 0, 0)" gradientUnits="userSpaceOnUse"><stop offset="0" stop-color="#fff"/><stop offset=".08" stop-color="#f4f4f4"/><stop offset=".23" stop-color="#e8e8e8"/><stop offset=".43" stop-color="#e1e1e1"/><stop offset="1" stop-color="#e0e0e0"/></linearGradient><linearGradient id="Unbenannter_Verlauf_5" x1="1063.1" y1="1027.68" x2="339.01" y2="1731.96" gradientTransform="matrix(1, 0, 0, 1, 0, 0)" gradientUnits="userSpaceOnUse"><stop offset="0" stop-color="#fff"/><stop offset=".29" stop-color="#eee"/><stop offset=".63" stop-color="#e3e3e3"/><stop offset="1" stop-color="#e0e0e0"/></linearGradient></defs><g id="Ebene_1-2"><polygon class="cls-5" points=".88 1 1123.43 3.94 1123.43 2436.5 1.34 2436.5 .88 1"/><path class="cls-3" d="M272.78,2436.5l409.54-409.54c30.32-30.32,77.33-36.25,114.23-14.42l326.87,193.43v230.53H272.78Z"/><path class="cls-6" d="M185.11,1.54l500.71,500.71c37.25,37.25,97.7,37.06,134.72-.43l305.86-309.77V0L185.11,1.54Z"/><path class="cls-2" d="M1126.41,840.25v474.75l-581.97,628.38c-38.23,41.28-103.12,42.53-142.91,2.74l-131.55-131.55c-39.1-39.1-38.68-102.62,.94-141.19l855.49-833.13Z"/><path class="cls-4" d="M1126.41,750.25l-3.25,389.75L379.11,1928.16c-29.49,31.61-79.31,32.48-109.88,1.91l-130.56-130.56c-30.41-30.41-29.73-79.92,1.5-109.49l986.24-939.78Z"/><path class="cls-1" d="M1.52,2218l870.31-923.73c64.76-68.74,64.76-180.19,0-248.92L0,120,1.52,2218Z"/></g></svg>