<?xml version="1.0" encoding="UTF-8"?><svg id="Ebene_2" xmlns="http://www.w3.org/2000/svg" viewBox="0 0 1126 2436"><defs><style>.cls-1{opacity:.18;}.cls-1,.cls-2,.cls-3,.cls-4{fill:#ff5400;stroke:#ff5400;stroke-miterlimit:10;}.cls-2{opacity:.16;}.cls-4{opacity:.1;}</style></defs><g id="Ebene_1-2"><path class="cls-3" d="M413.5,321.5c62.84,41.85-39.78,219.51,38,292,39.12,36.46,108.75,32.22,152,8,73.29-41.04,91.25-150.88,62-219-26.61-61.96-83.69-69.4-84-116-.26-38.79,38.96-82.8,84-97,98.95-31.21,169.57,99.25,316,100,62.91,.32,113.68-23.43,144-41V.5H.5V170.5c2.47,24.71,14.17,112.75,82.95,156.35,9.87,6.26,33.2,19.38,85.05,24.65,140.57,14.28,202.25-58.47,245-30Z"/><path class="cls-3" d="M1125.5,2146.14c-157.82,9.71-340.62-235.78-444-191.64-107.03,45.7-22.18,113.44-19,188.64,3.99,94.11-143.73,231.66-276,192-57.28-17.18-122.34-70.79-127-137-6.79-96.59,121.64-125.09,130-228,8.63-106.19-113.23-259.29-235-235C72.81,1751.43,4.01,1845,.5,1962.14v473.36H1125.5v-289.36Z"/><path class="cls-1" d="M1125.5,2059.5c-116.75,10.06-188.88-18.44-233-46-86.65-54.13-100.79-93.94-176-100-46.37-3.74-96.79,22.78-116,65-32.79,72.04,63.09,99.13,38,184-16.43,55.56-110.05,102.24-195,102-40.54-.12-132.71-10.63-148-59-18.64-58.97,101.42-96.85,127-208,26.12-113.48-50.1-286.54-190-316-120.56-25.38-220.88,70.09-232,81v634.77H1125l.5-337.77Z"/><path class="cls-2" d="M1125.5,299.5c-83.79,89.88-141.79,101.02-179,95-20.67-3.34-28.46-10.93-111-67-115.91-78.74-142.16-92.03-165-82-22.33,9.8-35.13,39.13-35,63,.27,49.98,57.19,63.37,92,124,29.92,52.12,34.86,124.08,11,178-45.88,103.68-204.27,154.29-287,100-60.71-39.84-71.26-130.01-75-162-11.36-97.1,27.33-166.94,0-184-13.69-8.55-29.09,5.43-68,19-11.23,3.92-107.06,36.2-186,8C50.97,365.95,14.47,298.29,.5,267.5V99.97l1125,16.22v183.31Z"/><path class="cls-4" d="M1125.5,2006.5c-108.47,10.02-200.7-17.13-241.7-44.58-62.62-41.93-84.48-75.23-123.98-90.8-11.45-4.51-23.45-7.69-39.55-8.79-69.67-4.77-150.78,46.81-161.87,105.18-12.33,64.95,70.57,93.37,56.86,154.13-11.82,52.35-86.2,88.03-148.65,90.28-47.51,1.71-124.32-14.03-137.51-58.76-17.32-58.73,94.23-96.46,118-207.16,24.27-113.02-46.55-285.39-176.54-314.72-112.02-25.28-197.06-3.76-270.06,101.24v612H1124.5l1-338Z"/><path class="cls-4" d="M1125.5,355.03c-83.79,89.88-141.79,101.02-179,95-20.67-3.34-35,22.47-111-67-90.72-106.8-142.16-92.03-165-82-22.33,9.8-35.13,39.13-35,63,.27,49.98,57.19,63.37,92,124,29.92,52.12,34.86,124.08,11,178-45.88,103.68-204.27,154.29-287,100-60.71-39.84-71.26-130.01-75-162-11.36-97.1,27.33-166.94,0-184-13.69-8.55-29.09,5.43-68,19-11.23,3.92-107.06,36.2-186,8C50.97,421.47,14.47,353.81,.5,323.03V155.5l1125,16.22v183.31Z"/></g></svg>