<?xml version="1.0" encoding="UTF-8"?><svg id="Ebene_2" xmlns="http://www.w3.org/2000/svg" viewBox="0 0 1126 2456.5"><defs><style>.cls-1,.cls-2{fill:#ff5400;stroke:#ff5400;stroke-miterlimit:10;}.cls-2{opacity:.1;}</style></defs><g id="Ebene_1-2"><path class="cls-1" d="M462.05,2073.71c-8.08,27.12,23.43,48.63,45.76,31.25,232.07-180.68,298.67-210.24,311.25-197.52,.39,.4,.72,.79,1.13,1.37,3.77,5.23,10.91,24.93-22.69,122.69-23.25,67.66,255.92-53.82,328-165l-.49,570.5H.5v-400.5c54.4,41.17,136.49,88.77,224,73,150.38-27.11,229.32-214.96,260-200,11.68,5.7,14.5,40.15-22.45,164.22Z"/><path class="cls-2" d="M462.05,2020.12c-8.08,32.54,23.43,58.35,45.76,37.49,232.07-216.79,298.67-252.25,311.25-236.99,.39,.47,.72,.95,1.13,1.64,3.77,6.28,10.91,29.91-22.69,147.21-23.25,81.18,255.92-64.58,328-197.97l-.49,684.5H.5v-480.53c54.4,49.39,136.49,106.51,224,87.59,150.38-32.52,229.32-257.91,260-239.96,11.68,6.83,14.5,48.17-22.45,197.03Z"/><path class="cls-2" d="M501.93,1990.12c-9.11,32.54,26.41,58.35,51.59,37.49,261.67-216.79,336.77-252.25,350.95-236.99,.44,.47,.81,.95,1.28,1.64,4.25,6.28,12.3,29.91-25.58,147.21-26.22,81.18,164.07-13.08,245.34-146.47v644L.5,2401v-448c61.34,49.39,134.9,98.98,233.57,80.06,169.57-32.52,258.57-257.91,293.16-239.96,13.17,6.83,16.35,48.17-25.31,197.03Z"/><path class="cls-1" d="M.5,355.39V.5H1125.01V501.34c-37.52-17.4-87.78-32.8-143.51-24.34-131.26,19.94-190.09,160.89-224,146-52.85-23.21,62.41-375.76,19-392-17.42-6.52-68.31,38.14-97.34,77.1-.09,.12-.16,.22-.19,.26-29.62,39.87-222.54,288.58-254.47,268.64-16.93-10.57-15.21-79.98,5.89-172.86,7.24-31.87-16.2-62.78-48.87-63.9-12.2-.42-25.2,1.3-38.02,6.77-55.66,23.73-63.74,99.27-65,111-8.05,75.21,38.75,117.16,19,143-9.34,12.22-34.7,22.33-113-1-23.13-5.78-41.98-14.26-57-23C21.91,515.59,3.7,382.81,.5,355.39Z"/><path class="cls-2" d="M1125.5,596c-77.53-43.04-129.33-40.98-163-30-69.19,22.55-84.74,90.2-156,97-3.5,.33-67.61,5.63-95-32-37.32-51.27-.69-174.3,30-238,6.8-14.12,22.11-43.59,10-65-7.28-12.87-24.64-23.13-40-21-32.25,4.47-36.46,60.91-76,146-29.89,64.32-55.76,120.01-111,148-43.2,21.89-108.14,28.77-135-2-23.24-26.62-12.39-75.05-5-108,12.85-57.33,39.39-85.99,27-100-8.8-9.95-31.5-6.05-46,2-25.08,13.92-33.61,44.66-38,73-19.13,123.41,42.05,189.25,11,230-31.76,41.68-130.53,18.46-178,0C61.31,657.43,14.51,572.97,.5,545V147.28l1125,21.62v427.09Z"/><path class="cls-2" d="M1125.5,569c-81.53-52.23-78-19.89-113.4-6.57-72.75,27.37-89.11,109.46-164.04,117.7-3.68,.4-71.1,6.83-99.9-38.83-39.25-62.22-.72-211.51,31.55-288.8,7.15-17.14,23.25-52.9,10.52-78.87-7.66-15.61-25.91-28.07-42.06-25.48-33.91,5.42-38.34,73.91-79.92,177.16-31.43,78.05-58.64,145.62-116.72,179.59-45.42,26.57-113.72,34.91-141.96-2.43-24.44-32.31-13.02-91.07-5.26-131.05,13.51-69.57,41.42-104.34,28.39-121.34-9.25-12.07-33.12-7.34-48.37,2.43-26.37,16.89-35.34,54.19-39.96,88.58-20.11,149.75,44.22,229.64,11.57,279.09-33.4,50.58-137.26,22.4-187.18,0C64.45,673.38,15.23,570.89,.5,536.95V54.34l1125,25.66v489Z"/></g></svg>