<?xml version="1.0" encoding="UTF-8"?><svg id="Ebene_2" xmlns="http://www.w3.org/2000/svg" viewBox="0 0 1126.19 2438"><defs><style>.cls-1,.cls-2{fill:#ff5400;stroke:#ff5400;stroke-miterlimit:10;}.cls-2{opacity:.1;}</style></defs><g id="Ebene_1-2"><path class="cls-1" d="M495.78,2436.74c8.08-15.41,83.68-167.45-46-306.79-96.86-104.07-270.68-160.7-449.28-146.89v454.45l495.28-.77Z"/><path class="cls-1" d="M452.26,2436.5c-61.65-221.14,37.23-442.5,230.4-541.44,198.46-101.64,411.91-30.78,442.84-20v561.44H452.26Z"/><path class="cls-1" d="M1125.5,250.53c-211.37,162.11-484.63,198.74-704.35,91.64C217.23,242.77,134.29,56.07,112,.5l1013.5,1.13V250.53Z"/><path class="cls-2" d="M.5,295.75c8.85,11.07,40.81,50,79,47.75,51.92-3.06,107.16-81.78,105-200,8.64,76.01,37.87,216.66,149,308,181.96,149.54,522.83,117.01,792-130.11V131.5H.5v164.25Z"/><path class="cls-2" d="M.69,330.17c8.85,13.49,40.81,60.93,79,58.19,51.92-3.73,107.16-99.67,105-243.74,8.64,92.63,37.87,264.05,149,375.36,181.96,182.25,522.83,142.61,792-158.57V130H.69v200.17Z"/><path class="cls-2" d="M.5,1927.5c40.61-8.96,123.39-21.3,220,8,135.92,41.23,209.42,137.65,232,170,97.3-189.69,269.82-312.1,451-311,96.24,.59,173.38,35.89,222,65.09l.19,405.41L.5,2234.34v-306.84Z"/><path class="cls-2" d="M.5,1799.41c40.61-11.54,123.39-27.43,220,10.3,135.92,53.09,209.42,177.25,232,218.9,97.3-244.26,269.82-401.88,451-400.46,96.24,.75,173.38,46.22,222,83.82l.19,522.03L.5,2194.52v-395.1Z"/></g></svg>