<?xml version="1.0" encoding="UTF-8"?>
<svg id="Layer_2" data-name="Layer 2" xmlns="http://www.w3.org/2000/svg" viewBox="0 0 532.63 533.89">
  <defs>
    <style>
      .cls-1 {
        fill: #ea571f;
      }

      .cls-2 {
        fill: #fff;
      }

      .cls-3 {
        fill: #14384e;
      }
    </style>
  </defs>
  <g id="Layer_1-2" data-name="Layer 1">
    <g>
      <path class="cls-2" d="m61.04,172.72C112.53,99.24,239.39-55.8,337.61,20.65c63.09,51.86,80.12,174.62,89.05,252.05,2.09,30.21-40.97,35.02-45.47,4.92-2.76-69.19-8.9-187.35-60.29-237.45C244.16-30.22,108.18,114.67,61.04,172.72h0Z"/>
      <path class="cls-2" d="m449.25,116.31c47.81,75.93,141.62,252.93,33.09,313.88-72.33,38.09-191.94,6.25-266.87-15.51-28.66-9.78-16.42-51.34,13.07-43.83,64.65,24.21,214.69,79.68,267.48,17.58,50.96-63.93-12.76-207.99-46.77-272.12h0Z"/>
      <path class="cls-2" d="m266.41,533.89c-80.57-9.68-237.06-39.85-263.19-129.29-25.83-95.16,110.22-192.76,178.18-240.1,25.62-16.14,50.24,19.51,25.86,37.73-59.64,35.19-160.82,96.53-180.62,165.51-25.69,100.91,166.31,152.11,239.76,166.15h0Z"/>
      <circle class="cls-1" cx="188.57" cy="359.14" r="75.63"/>
      <circle class="cls-2" cx="391.72" cy="299.42" r="75.63"/>
      <circle class="cls-3" cx="234.04" cy="177.28" r="75.63"/>
    </g>
  </g>
</svg>